PathFileType	4	(X/Y/Z)	/Users/itak/Documents/Research/Walk-IL/dataset/trc/00331_00011.trc
DataRate	CameraRate	NumFrames	NumMarkers	Units	OrigDataRate	OrigDataStartFrame	OrigNumFrames
100.000000	100.000000	4	55	mm	100.000000	198	792
Frame#	Time	RPSI			LPSI			L3			STRN			T10			C7			CLAV			RBAK			LBAK			LSHO			LUPA			LAEL			LAOL			LWTS			LWPS			LFRA			LIFD			LHPS			RSHO			RUPA			RAEL			RAOL			RWTS			RWPS			RFRA			RIFD			RHTS			RHPS			RBHD			LFHD			RFHD			LBHD			LHIP			RHIP			RASI			LASI			LKNE			LTHI			LANK			LTIP			LTOE			LMT1			LMT5			LHEE			RKNE			RTHI			RANK			RTIP			RTOE			RMT1			RMT5			RHEE			LHTS			*53			*54			
		X1	Y1	Z1	X2	Y2	Z2	X3	Y3	Z3	X4	Y4	Z4	X5	Y5	Z5	X6	Y6	Z6	X7	Y7	Z7	X8	Y8	Z8	X9	Y9	Z9	X10	Y10	Z10	X11	Y11	Z11	X12	Y12	Z12	X13	Y13	Z13	X14	Y14	Z14	X15	Y15	Z15	X16	Y16	Z16	X17	Y17	Z17	X18	Y18	Z18	X19	Y19	Z19	X20	Y20	Z20	X21	Y21	Z21	X22	Y22	Z22	X23	Y23	Z23	X24	Y24	Z24	X25	Y25	Z25	X26	Y26	Z26	X27	Y27	Z27	X28	Y28	Z28	X29	Y29	Z29	X30	Y30	Z30	X31	Y31	Z31	X32	Y32	Z32	X33	Y33	Z33	X34	Y34	Z34	X35	Y35	Z35	X36	Y36	Z36	X37	Y37	Z37	X38	Y38	Z38	X39	Y39	Z39	X40	Y40	Z40	X41	Y41	Z41	X42	Y42	Z42	X43	Y43	Z43	X44	Y44	Z44	X45	Y45	Z45	X46	Y46	Z46	X47	Y47	Z47	X48	Y48	Z48	X49	Y49	Z49	X50	Y50	Z50	X51	Y51	Z51	X52	Y52	Z52	X53	Y53	Z53	X54	Y54	Z54	X55	Y55	Z55	

199	1.98	925.0780639648438	972.4525146484375	196.3571929931641	927.591796875	970.6444702148438	67.60540008544922	923.9714965820312	1024.11962890625	135.7631530761719	1145.686279296875	1211.47607421875	122.7777938842773	905.6246337890625	1144.620239257812	125.4673004150391	943.7857666015625	1392.283569335938	106.2981796264648	1100.712280273438	1336.062744140625	116.022590637207	894.7197265625	1255.818603515625	178.4146728515625	938.4375	1353.319580078125	3.842181444168091	1026.202514648438	1370.794799804688	-49.93223190307617	1016.933227539062	1249.095581054688	-115.9733505249023	1045.859497070312	1044.456176757812	-118.2620010375977	976.4432373046875	1031.326782226562	-70.73722076416016	1137.886962890625	804.590576171875	-50.47542953491211	1108.469482421875	791.491943359375	-111.6576690673828	1064.626098632812	940.573974609375	-118.6657028198242	1143.244995117188	644.666259765625	-41.02816772460938	1105.385864257812	721.3734741210938	-104.6310577392578	1002.200317382812	1381.786254882812	271.0494689941406	993.4967651367188	1316.398681640625	336.43603515625	1011.675415039062	1048.13623046875	369.9676208496094	960.8516235351562	1040.984497070312	289.4141540527344	1120.442504882812	822.71044921875	309.1231079101562	1091.2470703125	805.0713500976562	377.8626708984375	1039.199340820312	981.4089965820312	375.2525634765625	1140.926879882812	649.8279418945312	314.0177612304688	1152.861938476562	721.900634765625	320.8205871582031	1107.328857421875	722.3924560546875	372.1387023925781	942.4197387695312	1588.758178710938	160.7013854980469	1142.777099609375	1622.425903320312	115.1385803222656	1096.078247070312	1620.83740234375	204.7767791748047	984.955322265625	1583.307739257812	23.30178451538086	1014.67138671875	910.630615234375	-31.32314491271973	1003.494506835938	918.2599487304688	306.5428771972656	1108.737915039062	947.2144775390625	265.527587890625	1135.05615234375	938.4290771484375	26.35582733154297	1043.15869140625	453.6773681640625	-19.79246520996094	1050.939208984375	593.0606079101562	-28.69796562194824	950.0547485351562	40.3939323425293	-8.963998794555664	994.41162109375	239.7988128662109	-26.34792327880859	1154.763549804688	31.26564025878906	53.57039260864258	1084.621215820312	19.32213020324707	93.32471466064453	1075.32275390625	34.69352340698242	-18.95405769348145	915.3723754882812	34.19725799560547	57.48003768920898	1020.83837890625	453.8877563476562	291.9362182617188	1078.90087890625	710.5352783203125	303.4872436523438	960.6452026367188	41.87706756591797	270.4123229980469	1023.849243164062	335.5443115234375	284.9405517578125	1153.519897460938	33.37126922607422	215.8977355957031	1097.145874023438	29.29027557373047	175.3003387451172	1061.611328125	28.96870231628418	287.5171813964844	909.0606079101562	42.71844100952148	223.1858367919922	1152.972778320312	726.3157958984375	-62.26616668701172	nan	nan	nan	nan	nan	nan	
200	1.99	925.1827392578125	972.4507446289062	196.4156494140625	927.6228637695312	970.6549682617188	67.63335418701172	924.0574951171875	1024.141479492188	135.8104553222656	1145.79931640625	1211.428955078125	122.8100967407227	905.663330078125	1144.643310546875	125.5026016235352	943.9409790039062	1392.276733398438	106.3591842651367	1100.84814453125	1336.02880859375	116.0316543579102	894.8080444335938	1255.827758789062	178.4536895751953	938.5357666015625	1353.335571289062	3.880318880081177	1026.294921875	1370.79638671875	-49.88244247436523	1016.97998046875	1249.09228515625	-115.9398040771484	1045.824829101562	1044.433349609375	-118.2311859130859	976.418212890625	1031.358276367188	-70.69849395751953	1137.744018554688	804.5545654296875	-50.50389099121094	1108.2333984375	791.4525756835938	-111.7058410644531	1064.534301757812	940.5696411132812	-118.6766738891602	1142.97021484375	644.5185546875	-41.05143356323242	1105.190551757812	721.3604125976562	-104.7183990478516	1002.313049316406	1381.752563476562	271.0980224609375	993.5679931640625	1316.403686523438	336.4609680175781	1011.823547363281	1048.11083984375	370.0020446777344	960.9794921875	1040.998046875	289.4599914550781	1120.491943359375	822.6961669921875	309.1498718261719	1091.294799804688	805.0599975585938	377.8562316894531	1039.420654296875	981.4078369140625	375.3270874023438	1140.957641601562	649.8071899414062	314.0110168457031	1152.942504882812	721.8576049804688	320.8501892089844	1107.34033203125	722.3931884765625	372.1614074707031	942.5833740234375	1588.775390625	160.7543182373047	1142.963256835938	1622.424072265625	115.191047668457	1096.294189453125	1620.792236328125	204.8601837158203	985.1372680664062	1583.324340820312	23.35153961181641	1014.727722167969	910.561279296875	-31.24199295043945	1003.679626464844	918.25	306.6109008789062	1108.795043945312	947.220703125	265.5716857910156	1135.104858398438	938.369140625	26.42605972290039	1043.165283203125	453.6761169433594	-19.77166366577148	1050.878784179688	593.0635375976562	-28.71832847595215	950.0612182617188	40.39443206787109	-8.957226753234863	994.4176635742188	239.7976379394531	-26.33913993835449	1154.763427734375	31.26595115661621	53.57082366943359	1084.618530273438	19.32265663146973	93.32686614990234	1075.324462890625	34.69371032714844	-18.95261764526367	915.3671875	34.19548034667969	57.48220062255859	1020.842224121094	453.9129943847656	291.9429626464844	1079.146850585938	710.531494140625	303.5225219726562	960.6436157226562	41.87540054321289	270.41259765625	1023.857116699219	335.5546569824219	284.954833984375	1153.520751953125	33.37216186523438	215.8980560302734	1097.145629882812	29.29136085510254	175.3004302978516	1061.613037109375	28.96635246276855	287.5162353515625	909.0604858398438	42.71893692016602	223.1857452392578	1152.79296875	726.2418823242188	-62.32571411132812	nan	nan	nan	nan	nan	nan	
201	2	925.2742309570312	972.4476928710938	196.4710388183594	927.6654663085938	970.6640625	67.66605377197266	924.1472778320312	1024.160522460938	135.8587188720703	1145.908569335938	1211.379516601562	122.8433609008789	905.7003173828125	1144.666137695312	125.5383529663086	944.095703125	1392.268310546875	106.418327331543	1100.99462890625	1335.998413085938	116.0337371826172	894.8900146484375	1255.838256835938	178.4920349121094	938.6344604492188	1353.354858398438	3.920161962509155	1026.396240234375	1370.80419921875	-49.83054351806641	1017.029907226562	1249.088745117188	-115.9057846069336	1045.79296875	1044.412109375	-118.20361328125	976.3973999023438	1031.38720703125	-70.65885162353516	1137.601684570312	804.5115966796875	-50.53203964233398	1108.020751953125	791.417724609375	-111.7560272216797	1064.450927734375	940.5669555664062	-118.6881942749023	1142.712158203125	644.37255859375	-41.07755279541016	1105.024291992188	721.3521118164062	-104.8031921386719	1002.422668457031	1381.718505859375	271.1466674804688	993.664794921875	1316.411865234375	336.5064086914062	1011.977905273438	1048.081176757812	370.0279235839844	961.12158203125	1041.012084960938	289.5105895996094	1120.543701171875	822.6843872070312	309.1760559082031	1091.338134765625	805.0460815429688	377.8539733886719	1039.65625	981.3712768554688	375.3791809082031	1140.987548828125	649.7869262695312	314.0050964355469	1153.021240234375	721.8181762695312	320.8791198730469	1107.3525390625	722.387451171875	372.1876220703125	942.7425537109375	1588.796142578125	160.8055267333984	1143.160888671875	1622.428344726562	115.2380294799805	1096.5009765625	1620.744873046875	204.9503479003906	985.3263549804688	1583.343872070312	23.40327835083008	1014.790588378906	910.4927368164062	-31.15768432617188	1003.851623535156	918.2373046875	306.6767578125	1108.85302734375	947.222900390625	265.6155395507812	1135.160278320312	938.3101196289062	26.49944877624512	1043.173828125	453.6749877929688	-19.74917984008789	1050.826538085938	593.0643310546875	-28.73679542541504	950.0668334960938	40.39557266235352	-8.95097541809082	994.4256591796875	239.7961730957031	-26.33000755310059	1154.76318359375	31.26632690429688	53.57122039794922	1084.615234375	19.32272720336914	93.32938385009766	1075.326171875	34.69368743896484	-18.95097541809082	915.3614501953125	34.19374847412109	57.48365783691406	1020.846008300781	453.9365539550781	291.9537353515625	1079.3798828125	710.5249633789062	303.5556030273438	960.6419677734375	41.87389755249023	270.4126281738281	1023.86328125	335.56591796875	284.9697570800781	1153.521728515625	33.37306594848633	215.8983306884766	1097.14501953125	29.29236030578613	175.3007202148438	1061.613891601562	28.96355056762695	287.5153503417969	909.060546875	42.71916580200195	223.1856994628906	1152.649291992188	726.1653442382812	-62.38877868652344	nan	nan	nan	nan	nan	nan	
202	2.01	925.3529052734375	972.4444580078125	196.5230102539062	927.7200317382812	970.6719970703125	67.70329284667969	924.2413940429688	1024.17626953125	135.9083099365234	1146.014770507812	1211.329833984375	122.8766479492188	905.7362670898438	1144.688232421875	125.5745849609375	944.2474365234375	1392.259033203125	106.4749526977539	1101.148071289062	1335.972290039062	116.0307235717773	894.968505859375	1255.850219726562	178.5302276611328	938.7345581054688	1353.37744140625	3.963153839111328	1026.508422851562	1370.818359375	-49.77747344970703	1017.082641601562	1249.084594726562	-115.8703231811523	1045.7646484375	1044.39306640625	-118.1796035766602	976.3809204101562	1031.41357421875	-70.61894989013672	1137.460205078125	804.4597778320312	-50.56211853027344	1107.836791992188	791.3876953125	-111.8062210083008	1064.376098632812	940.5657958984375	-118.6997756958008	1142.472778320312	644.2328491210938	-41.11216354370117	1104.883911132812	721.3477172851562	-104.8833847045898	1002.53076171875	1381.683959960938	271.1966857910156	993.7853393554688	1316.420654296875	336.5669860839844	1012.135192871094	1048.04931640625	370.0465698242188	961.2738647460938	1041.025634765625	289.564697265625	1120.59716796875	822.6751098632812	309.2019958496094	1091.378173828125	805.0285034179688	377.8569641113281	1039.896850585938	981.2990112304688	375.4053955078125	1141.015625	649.7667236328125	314.0004577636719	1153.09619140625	721.7826538085938	320.9073791503906	1107.366088867188	722.3720703125	372.2170104980469	942.9029541015625	1588.820922851562	160.8554382324219	1143.368530273438	1622.4345703125	115.2824554443359	1096.695190429688	1620.697143554688	205.0427856445312	985.5211791992188	1583.366088867188	23.45670700073242	1014.860168457031	910.42529296875	-31.07024383544922	1004.008728027344	918.2218017578125	306.7401123046875	1108.91259765625	947.2206420898438	265.6581420898438	1135.222290039062	938.2521362304688	26.57596969604492	1043.18408203125	453.6740417480469	-19.72516632080078	1050.784057617188	593.0638427734375	-28.75137519836426	950.0715942382812	40.39749145507812	-8.945406913757324	994.435546875	239.7946929931641	-26.32051849365234	1154.762939453125	31.26651573181152	53.57151031494141	1084.611572265625	19.32224655151367	93.33196258544922	1075.327758789062	34.69344711303711	-18.94924736022949	915.3555297851562	34.19219970703125	57.48440170288086	1020.849914550781	453.9563903808594	291.9685668945312	1079.597778320312	710.515625	303.586181640625	960.6404418945312	41.87268829345703	270.4125061035156	1023.868103027344	335.5776977539062	284.985107421875	1153.522705078125	33.37408065795898	215.8984832763672	1097.144287109375	29.2932014465332	175.3012084960938	1061.613647460938	28.96051406860352	287.5146179199219	909.0606689453125	42.71916580200195	223.1857757568359	1152.536499023438	726.0853271484375	-62.45678329467773	nan	nan	nan	nan	nan	nan	
